<?xml version="1.0" encoding="UTF-8" standalone="no"?>
<!-- Created with Inkscape (http://www.inkscape.org/) -->

<svg
   width="129.56744mm"
   height="88.850334mm"
   viewBox="0 0 129.56744 88.850334"
   version="1.1"
   id="svg5"
   inkscape:version="1.2.2 (b0a8486541, 2022-12-01)"
   sodipodi:docname="silentshouttattoo-outline.svg"
   xml:space="preserve"
   xmlns:inkscape="http://www.inkscape.org/namespaces/inkscape"
   xmlns:sodipodi="http://sodipodi.sourceforge.net/DTD/sodipodi-0.dtd"
   xmlns="http://www.w3.org/2000/svg"
   xmlns:svg="http://www.w3.org/2000/svg"><sodipodi:namedview
     id="namedview7"
     pagecolor="#ffffff"
     bordercolor="#000000"
     borderopacity="0.25"
     inkscape:showpageshadow="2"
     inkscape:pageopacity="0.0"
     inkscape:pagecheckerboard="true"
     inkscape:deskcolor="#d1d1d1"
     inkscape:document-units="mm"
     showgrid="false"
     inkscape:zoom="1.2938725"
     inkscape:cx="733.45712"
     inkscape:cy="133.70715"
     inkscape:window-width="3440"
     inkscape:window-height="1403"
     inkscape:window-x="0"
     inkscape:window-y="0"
     inkscape:window-maximized="1"
     inkscape:current-layer="layer2" /><defs
     id="defs2" /><g
     inkscape:groupmode="layer"
     id="layer2"
     inkscape:label="Grafik"
     style="display:inline"
     transform="translate(-32.533109,-184.69513)"><path
       id="path1186"
       style="opacity:1;fill:none;stroke:#000000;stroke-width:1.3;stroke-linecap:round;stroke-linejoin:round;stroke-dasharray:none;stroke-opacity:1"
       d="m 134.53907,185.62226 c -3.54569,0.0101 -8.00282,0.0356 -10.78073,0.0553 -2.71185,0.0192 -3.25088,2.64975 -3.31918,4.77283 -0.0683,2.12308 -0.21842,70.50588 -0.28732,75.39643 -0.0689,4.89058 3.06368,6.47371 5.37486,6.55361 2.3112,0.0799 5.36276,0.004 8.34161,-0.11886 2.67414,-0.11022 4.139,-2.69253 4.146,-4.39973 0.007,-1.7072 -0.0376,-72.459 0.0992,-77.60198 -0.0147,-1.05256 -0.0288,-4.6677 -3.57446,-4.6576 z m -2.68149,8.31784 -0.46043,69.44072 -4.53254,0.005 0.36587,-69.41436 z"
       inkscape:label="o" /><path
       id="path1186-7"
       style="display:inline;opacity:1;fill:none;stroke:#000000;stroke-width:1.3;stroke-linecap:round;stroke-linejoin:round;stroke-dasharray:none;stroke-opacity:1"
       d="m 156.05536,185.40891 c -3.54408,-0.10712 -5.10963,-0.0514 -7.88754,-0.0317 -2.71185,0.0192 -4.02836,2.98469 -4.09666,5.10777 -0.0683,2.12308 -0.39254,72.04212 -0.54489,76.93079 -0.0874,2.80453 1.62267,4.98129 5.09669,5.01502 2.31247,0.0224 5.55663,-0.10233 8.53548,-0.22519 2.67414,-0.11022 4.08831,-2.94882 4.09531,-4.65602 0.007,-1.7072 0.20746,-70.94574 0.19635,-76.07045 -0.0111,-5.12471 -4.0204,-6.04048 -5.39474,-6.07024 z m -0.97246,8.60068 -0.45577,69.09321 -4.36013,-0.0146 0.35105,-69.11599 z"
       sodipodi:nodetypes="csssscszccccccc"
       inkscape:label="o" /><path
       style="opacity:1;fill:none;stroke:#000000;stroke-width:1.3;stroke-linecap:round;stroke-linejoin:round;stroke-dasharray:none;stroke-opacity:1"
       d="m 33.257301,185.93307 18.667456,-0.12481 -0.01598,8.13205 -5.421168,0.022 -0.01468,78.81423 -7.542348,-0.0319 0.412676,-78.80638 -6.160149,0.0484 z"
       id="path1136"
       sodipodi:nodetypes="ccccccccc"
       inkscape:label="t" /><path
       style="display:inline;opacity:1;fill:none;stroke:#000000;stroke-width:1.3;stroke-linecap:round;stroke-linejoin:round;stroke-dasharray:none;stroke-opacity:1"
       d="m 76.916138,185.72775 18.251602,0.011 -0.06131,7.99423 -4.691975,-0.0167 -0.282691,78.8549 -7.795108,0.0573 0.360994,-78.92979 -5.855707,0.0826 z"
       id="path1136-3"
       sodipodi:nodetypes="ccccccccc"
       inkscape:label="t" /><path
       style="display:inline;opacity:1;fill:none;stroke:#000000;stroke-width:1.3;stroke-linecap:round;stroke-linejoin:round;stroke-dasharray:none;stroke-opacity:1"
       d="m 98.53718,185.63738 17.93261,-0.18355 -0.018,8.0414 -5.60784,0.20613 -0.16184,78.62049 -7.44462,0.11694 0.94841,-78.81373 -5.479532,-0.0603 z"
       id="path1136-6"
       sodipodi:nodetypes="ccccccccc"
       inkscape:label="t" /><path
       id="path1178"
       style="opacity:1;fill:none;stroke:#000000;stroke-width:1.3;stroke-linecap:round;stroke-linejoin:round;stroke-dasharray:none;stroke-opacity:1"
       d="m 59.169071,185.7927 c -2.156228,-0.011 -3.504698,2.63601 -3.427254,4.20033 0.07744,1.56432 -0.0801,82.90244 -0.0801,82.90244 l 6.900871,-0.13229 v -40.32571 h 4.370792 v 40.23734 h 6.851778 c 0,0 -0.04188,-75.81881 -0.03948,-81.39818 -0.07065,-4.4876 -1.047344,-5.43162 -3.786165,-5.53821 -2.738821,-0.1066 -7.82418,0.066 -10.790442,0.0543 z m 7.849061,8.13551 v 30.63328 l -4.365625,0.0744 0.04186,-30.64361 z"
       sodipodi:nodetypes="czccccccczcccccc"
       inkscape:label="a" /></g></svg>
