<?xml version="1.0" encoding="UTF-8" standalone="no"?>
<!-- Created with Inkscape (http://www.inkscape.org/) -->

<svg
   width="210mm"
   height="297mm"
   viewBox="0 0 210 297"
   version="1.1"
   id="svg5"
   inkscape:version="1.2.2 (b0a8486541, 2022-12-01)"
   sodipodi:docname="silentshouttattoo-infill-black.svg"
   xml:space="preserve"
   xmlns:inkscape="http://www.inkscape.org/namespaces/inkscape"
   xmlns:sodipodi="http://sodipodi.sourceforge.net/DTD/sodipodi-0.dtd"
   xmlns="http://www.w3.org/2000/svg"
   xmlns:svg="http://www.w3.org/2000/svg"><sodipodi:namedview
     id="namedview7"
     pagecolor="#ffffff"
     bordercolor="#000000"
     borderopacity="0.25"
     inkscape:showpageshadow="2"
     inkscape:pageopacity="0.0"
     inkscape:pagecheckerboard="true"
     inkscape:deskcolor="#d1d1d1"
     inkscape:document-units="mm"
     showgrid="false"
     inkscape:zoom="1.2938725"
     inkscape:cx="837.02221"
     inkscape:cy="434.35502"
     inkscape:window-width="3440"
     inkscape:window-height="1403"
     inkscape:window-x="0"
     inkscape:window-y="0"
     inkscape:window-maximized="1"
     inkscape:current-layer="layer2" /><defs
     id="defs2" /><g
     inkscape:groupmode="layer"
     id="layer2"
     inkscape:label="Grafik"
     style="display:inline"><path
       id="path1186"
       style="opacity:1;fill:#000000;stroke:#000000;stroke-width:1.3;stroke-linecap:round;stroke-linejoin:round;stroke-dasharray:none;stroke-opacity:1"
       d="M 134.53907 185.62226 C 130.99338 185.63236 126.53625 185.65786 123.75834 185.67756 C 121.04649 185.69675 120.50746 188.32731 120.43916 190.45039 C 120.37091 192.57347 120.22074 260.95627 120.15184 265.84682 C 120.08295 270.7374 123.21552 272.32053 125.5267 272.40043 C 127.8379 272.48029 130.88946 272.40435 133.86831 272.28157 C 136.54245 272.17135 138.00731 269.58904 138.01431 267.88184 C 138.02111 266.17464 137.97674 195.42284 138.11353 190.27986 C 138.0988 189.2273 138.08477 185.61216 134.53907 185.62226 z M 131.85758 193.9401 L 131.39715 263.38082 L 126.86461 263.38547 L 127.23048 193.97111 L 131.85758 193.9401 z "
       inkscape:label="o" /><path
       id="path1186-5"
       style="display:inline;opacity:1;fill:#000000;stroke:#000000;stroke-width:1.3;stroke-linecap:round;stroke-linejoin:round;stroke-dasharray:none;stroke-opacity:1"
       d="m 95.450433,102.04486 c -3.38887,0.11943 -5.341238,3.00136 -5.409538,5.12444 -0.0683,2.12308 -0.413285,61.51184 -0.482185,66.40239 -0.0689,4.89058 3.06368,6.47371 5.37486,6.55361 2.3112,0.0799 8.04033,0.23586 11.01918,0.113 2.67414,-0.11022 4.97607,-3.74593 4.98307,-5.45313 0.007,-1.7072 -0.12288,-61.68039 0.0139,-66.82337 -0.0147,-1.05256 -1.3592,-6.09167 -5.32995,-6.07836 -3.97076,0.0133 -6.780468,0.042 -10.169337,0.16142 z m 7.535897,7.95047 -0.7259,62.56761 -5.377242,0.11543 0.632186,-62.69122 z"
       sodipodi:nodetypes="zssscsczzccccc"
       inkscape:label="o" /><path
       id="path1186-7"
       style="display:inline;opacity:1;fill:#000000;stroke:#000000;stroke-width:1.3;stroke-linecap:round;stroke-linejoin:round;stroke-dasharray:none;stroke-opacity:1;fill-opacity:0.99821836"
       d="m 156.05536,185.40891 c -3.54408,-0.10712 -5.10963,-0.0514 -7.88754,-0.0317 -2.71185,0.0192 -4.02836,2.98469 -4.09666,5.10777 -0.0683,2.12308 -0.39254,72.04212 -0.54489,76.93079 -0.0874,2.80453 1.62267,4.98129 5.09669,5.01502 2.31247,0.0224 5.55663,-0.10233 8.53548,-0.22519 2.67414,-0.11022 4.08831,-2.94882 4.09531,-4.65602 0.007,-1.7072 0.20746,-70.94574 0.19635,-76.07045 -0.0111,-5.12471 -4.0204,-6.04048 -5.39474,-6.07024 z m -0.97246,8.60068 -0.45577,69.09321 -4.36013,-0.0146 0.35105,-69.11599 z"
       sodipodi:nodetypes="csssscszccccccc"
       inkscape:label="o" /><path
       style="opacity:1;fill:#000000;stroke:#000000;stroke-width:1.3;stroke-linecap:round;stroke-linejoin:round;stroke-dasharray:none;stroke-opacity:1;fill-opacity:1"
       d="M 58.318248,74.661831 57.530859,31.417032 c 0,0 -0.15424,-7.024088 -6.475189,-7.10415 -2.759993,-0.03496 -10.916019,0.0072 -10.916019,0.0072 0,0 -5.727303,0.297548 -5.833343,6.793884 -0.106039,6.496335 -0.808971,51.319275 -0.808971,51.319275 l 14.113568,40.549229 c 0,0 0.394203,2.92316 0.460103,5.134 0.0659,2.21085 0.181522,37.82756 0.181522,37.82756 l -5.082482,0.0623 -0.50044,-35.61632 -9.021699,0.22027 c 0,0 0.678153,45.24701 0.721902,45.67145 0.119035,1.57389 2.340248,4.80051 4.86142,4.92632 3.283214,0.0961 12.173913,-0.29815 12.173913,-0.29815 0,0 5.990574,-0.0698 5.956157,-6.21796 C 57.099108,127.8543 57.926518,124.10085 57.028374,119.52982 56.130231,114.9588 43.105747,80.376355 43.105747,80.376355 l 0.04234,-41.071437 5.264007,0.04054 0.272584,35.385268 z"
       id="path405"
       sodipodi:nodetypes="ccscsccscccccccszccccc"
       inkscape:label="s" /><path
       style="opacity:1;fill:#000000;stroke:#000000;stroke-width:1.3;stroke-linecap:round;stroke-linejoin:round;stroke-dasharray:none;stroke-opacity:1"
       d="m 66.113212,24.387369 h 7.552531 l 0.211894,73.88546 -1.927193,0.08021 c 0,0 -0.615749,-5.098429 -6.06752,-8.963534 -0.168603,-1.28569 0.230291,-65.002132 0.230291,-65.002132 z"
       id="path1118"
       sodipodi:nodetypes="ccccccc"
       inkscape:label="i" /><path
       style="opacity:1;fill:#000000;stroke:#000000;stroke-width:1.3;stroke-linecap:round;stroke-linejoin:round;stroke-dasharray:none;stroke-opacity:1"
       d="m 80.17486,24.120831 8.124662,-0.01477 0.127008,67.921807 c 0,0 19.55532,-0.227192 25.25365,-0.274183 5.69833,-0.04699 11.80046,4.375085 11.86738,10.145589 0.12674,10.92886 0.15404,70.24957 0.15404,70.24957 l 5.14232,-0.0278 0.0819,-70.327 7.78558,0.0559 -0.14957,73.51597 c 0,0 -0.25228,4.41629 -4.78054,4.607 -1.23472,0.052 -8.00283,0.0327 -10.26483,0.0594 -2.26199,0.0266 -5.24766,-1.23276 -5.35762,-5.66796 -0.10996,-4.4352 -0.91806,-68.50072 -0.88905,-70.64813 0.029,-2.1474 -2.38603,-5.598085 -5.95159,-5.612363 -5.3031,-0.02124 -30.474326,0.261004 -30.474326,0.261004 z"
       id="path1128"
       sodipodi:nodetypes="ccczscccccszzzscc"
       inkscape:label="lu" /><path
       style="opacity:1;fill:#000000;stroke:#000000;stroke-width:1.3;stroke-linecap:round;stroke-linejoin:round;stroke-dasharray:none;stroke-opacity:1"
       d="m 91.525326,24.066057 16.995494,0.01258 0.0612,5.950964 -8.631198,0.04753 -0.157959,21.473795 7.551237,0.02336 0.0553,5.939383 -7.752626,0.11093 -0.146378,22.138185 9.834064,-0.01987 0.08,6.271178 -17.953238,0.04443 z"
       id="path1130"
       sodipodi:nodetypes="ccccccccccccc"
       inkscape:label="e" /><path
       style="opacity:1;fill:#000000;stroke:#000000;stroke-width:1.3;stroke-linecap:round;stroke-linejoin:round;stroke-dasharray:none;stroke-opacity:1"
       d="m 111.82352,23.924314 7.03641,-0.06457 7.5487,36.091538 0.1949,-36.105468 8.08496,0.01691 0.19415,74.22711 -6.8171,-0.0206 -8.14303,-36.623932 -0.31033,27.129607 -8.22852,-0.02497 z"
       id="path1132"
       sodipodi:nodetypes="ccccccccccc"
       inkscape:label="n" /><path
       style="opacity:1;fill:#000000;stroke:#000000;stroke-width:1.3;stroke-linecap:round;stroke-linejoin:round;stroke-dasharray:none;stroke-opacity:1"
       d="m 138.56166,23.739883 25.47805,-0.05719 -0.12415,15.456456 -6.74039,0.07958 -0.45584,141.716972 -12.26439,0.0594 1.40515,-141.511063 -7.39114,0.120953 z"
       id="path1134"
       sodipodi:nodetypes="ccccccccc"
       inkscape:label="t" /><path
       style="opacity:1;fill:#000000;stroke:#000000;stroke-width:1.3;stroke-linecap:round;stroke-linejoin:round;stroke-dasharray:none;stroke-opacity:1"
       d="m 33.257301,185.93307 18.667456,-0.12481 -0.01598,8.13205 -5.421168,0.022 -0.01468,78.81423 -7.542348,-0.0319 0.412676,-78.80638 -6.160149,0.0484 z"
       id="path1136"
       sodipodi:nodetypes="ccccccccc"
       inkscape:label="t" /><path
       style="display:inline;opacity:1;fill:#000000;stroke:#000000;stroke-width:1.3;stroke-linecap:round;stroke-linejoin:round;stroke-dasharray:none;stroke-opacity:1"
       d="m 76.916138,185.72775 18.251602,0.011 -0.06131,7.99423 -4.691975,-0.0167 -0.282691,78.8549 -7.795108,0.0573 0.360994,-78.92979 -5.855707,0.0826 z"
       id="path1136-3"
       sodipodi:nodetypes="ccccccccc"
       inkscape:label="t" /><path
       style="display:inline;opacity:1;fill:#000000;stroke:#000000;stroke-width:1.3;stroke-linecap:round;stroke-linejoin:round;stroke-dasharray:none;stroke-opacity:1"
       d="m 98.53718,185.63738 17.93261,-0.18355 -0.018,8.0414 -5.60784,0.20613 -0.16184,78.62049 -7.44462,0.11694 0.94841,-78.81373 -5.479532,-0.0603 z"
       id="path1136-6"
       sodipodi:nodetypes="ccccccccc"
       inkscape:label="t" /><path
       id="path1178"
       style="opacity:1;fill:#000000;stroke:#000000;stroke-width:1.3;stroke-linecap:round;stroke-linejoin:round;stroke-dasharray:none;stroke-opacity:1"
       d="m 59.169071,185.7927 c -2.156228,-0.011 -3.504698,2.63601 -3.427254,4.20033 0.07744,1.56432 -0.0801,82.90244 -0.0801,82.90244 l 6.900871,-0.13229 v -40.32571 h 4.370792 v 40.23734 h 6.851778 c 0,0 -0.04188,-75.81881 -0.03948,-81.39818 -0.07065,-4.4876 -1.047344,-5.43162 -3.786165,-5.53821 -2.738821,-0.1066 -7.82418,0.066 -10.790442,0.0543 z m 7.849061,8.13551 v 30.63328 l -4.365625,0.0744 0.04186,-30.64361 z"
       sodipodi:nodetypes="czccccccczcccccc"
       inkscape:label="a" /><path
       style="opacity:1;fill:#000000;stroke:#000000;stroke-width:1.3;stroke-linecap:round;stroke-linejoin:round;stroke-dasharray:none;stroke-opacity:1"
       d="m 49.409376,89.953411 2.168305,6.796082 5.820363,0.260003 c 0,0 4.217995,0.957747 4.090191,4.906154 -0.127807,3.9484 0.225258,78.39696 0.225258,78.39696 l 8.325358,0.13978 -0.295419,-35.89542 5.319084,0.0439 0.03601,35.44873 7.711734,0.0531 0.348922,-78.53818 -8.112337,0.10238 -0.0682,34.93347 -5.153912,0.10534 c 0,0 0.0038,-34.07524 -0.118472,-36.940161 -0.122251,-2.864926 -3.574115,-9.886302 -9.806257,-9.824897 -2.202742,0.0217 -10.49061,0.01278 -10.49061,0.01278 z"
       id="path1236"
       sodipodi:nodetypes="cccscccccccccczscc"
       inkscape:label="h" /></g></svg>
