<svg xmlns="http://www.w3.org/2000/svg" viewBox="0 0 32 32" width="32" height="32">
  <!-- Green background -->
  <rect width="32" height="32" fill="#283618"/>
  
  <!-- Simplified Silent Shout Tattoo logo in white -->
  <g fill="#ffffff" stroke="#ffffff" stroke-width="0.3" transform="scale(0.15) translate(15, 20)">
    <!-- Simplified version of the main logo paths -->
    <path d="M 58.318248,74.661831 57.530859,31.417032 c 0,0 -0.15424,-7.024088 -6.475189,-7.10415 -2.759993,-0.03496 -10.916019,0.0072 -10.916019,0.0072 0,0 -5.727303,0.297548 -5.833343,6.793884 -0.106039,6.496335 -0.808971,51.319275 -0.808971,51.319275 l 14.113568,40.549229 c 0,0 0.394203,2.92316 0.460103,5.134 0.0659,2.21085 0.181522,37.82756 0.181522,37.82756 l -5.082482,0.0623 -0.50044,-35.61632 -9.021699,0.22027 c 0,0 0.678153,45.24701 0.721902,45.67145 0.119035,1.57389 2.340248,4.80051 4.86142,4.92632 3.283214,0.0961 12.173913,-0.29815 12.173913,-0.29815 0,0 5.990574,-0.0698 5.956157,-6.21796 C 57.099108,127.8543 57.926518,124.10085 57.028374,119.52982 56.130231,114.9588 43.105747,80.376355 43.105747,80.376355 l 0.04234,-41.071437 5.264007,0.04054 0.272584,35.385268 z"/>
    <path d="m 66.113212,24.387369 h 7.552531 l 0.211894,73.88546 -1.927193,0.08021 c 0,0 -0.615749,-5.098429 -6.06752,-8.963534 -0.168603,-1.28569 0.230291,-65.002132 0.230291,-65.002132 z"/>
    <path d="m 80.17486,24.120831 8.124662,-0.01477 0.127008,67.921807 c 0,0 19.55532,-0.227192 25.25365,-0.274183 5.69833,-0.04699 11.80046,4.375085 11.86738,10.145589 0.12674,10.92886 0.15404,70.24957 0.15404,70.24957 l 5.14232,-0.0278 0.0819,-70.327 7.78558,0.0559 -0.14957,73.51597 c 0,0 -0.25228,4.41629 -4.78054,4.607 -1.23472,0.052 -8.00283,0.0327 -10.26483,0.0594 -2.26199,0.0266 -5.24766,-1.23276 -5.35762,-5.66796 -0.10996,-4.4352 -0.91806,-68.50072 -0.88905,-70.64813 0.029,-2.1474 -2.38603,-5.598085 -5.95159,-5.612363 -5.3031,-0.02124 -30.474326,0.261004 -30.474326,0.261004 z"/>
    <path d="m 91.525326,24.066057 16.995494,0.01258 0.0612,5.950964 -8.631198,0.04753 -0.157959,21.473795 7.551237,0.02336 0.0553,5.939383 -7.752626,0.11093 -0.146378,22.138185 9.834064,-0.01987 0.08,6.271178 -17.953238,0.04443 z"/>
    <path d="m 111.82352,23.924314 7.03641,-0.06457 7.5487,36.091538 0.1949,-36.105468 8.08496,0.01691 0.19415,74.22711 -6.8171,-0.0206 -8.14303,-36.623932 -0.31033,27.129607 -8.22852,-0.02497 z"/>
    <path d="m 138.56166,23.739883 25.47805,-0.05719 -0.12415,15.456456 -6.74039,0.07958 -0.45584,141.716972 -12.26439,0.0594 1.40515,-141.511063 -7.39114,0.120953 z"/>
  </g>
</svg>
