<svg xmlns="http://www.w3.org/2000/svg" viewBox="0 0 16 16" width="16" height="16">
  <!-- Green background -->
  <rect width="16" height="16" fill="#283618"/>
  
  <!-- Silent Shout logo scaled for 16x16 -->
  <g transform="translate(0.5, 0.5) scale(0.03)" fill="white" stroke="white" stroke-width="4.91339" stroke-linecap="round" stroke-linejoin="round">
    <path d="M236.758 298.681C223.949 299.133 216.57 310.025 216.312 318.049C216.054 326.074 214.75 550.535 214.49 569.019C214.229 587.503 226.069 593.487 234.804 593.789C243.539 594.091 265.193 594.68 276.451 594.216C286.558 593.799 295.259 580.058 295.285 573.605C295.311 567.153 294.821 340.483 295.338 321.045C295.282 317.067 290.2 298.021 275.193 298.071C260.185 298.122 249.566 298.23 236.758 298.681ZM265.24 328.731L262.496 565.207L242.173 565.643L244.562 328.7L265.24 328.731Z"/>
    <path d="M96.4155 195.187L93.4395 31.7416C93.4395 31.7416 92.8565 5.19388 68.9663 4.89128C58.5349 4.75915 27.7089 4.9185 27.7089 4.9185C27.7089 4.9185 6.06244 6.04309 5.66166 30.5962C5.26088 55.1492 2.60413 224.559 2.60413 224.559L55.9467 377.816C55.9467 377.816 57.4366 388.864 57.6857 397.22C57.9348 405.576 58.3718 540.19 58.3718 540.19L39.1624 540.426L37.271 405.813L3.17321 406.645C3.17321 406.645 5.73632 577.658 5.90167 579.262C6.35156 585.21 14.7467 597.405 24.2755 597.881C36.6845 598.244 70.2872 596.754 70.2872 596.754C70.2872 596.754 92.9287 596.49 92.7986 573.253C91.8077 396.229 94.9349 382.043 91.5403 364.766C88.1458 347.49 38.9194 216.785 38.9194 216.785L39.0794 61.5541L58.9749 61.7073L60.0051 195.447L96.4155 195.187Z"/>
    <path d="M125.877 5.17285H154.422L155.223 284.425L147.939 284.728C147.939 284.728 145.612 265.459 125.006 250.85C124.369 245.991 125.877 5.17285 125.877 5.17285Z"/>
    <path d="M179.023 4.16519L209.73 4.10938L210.21 260.822C210.21 260.822 284.12 259.963 305.657 259.785C327.194 259.608 350.258 276.321 350.51 298.131C350.989 339.437 351.093 563.641 351.093 563.641L370.528 563.536L370.838 297.733L400.264 297.945L399.698 575.8C399.698 575.8 398.745 592.492 381.63 593.212C376.963 593.409 351.383 593.336 342.834 593.437C334.285 593.538 323 588.778 322.585 572.015C322.169 555.252 319.115 313.114 319.224 304.998C319.334 296.882 310.206 283.84 296.73 283.786C276.687 283.706 181.552 284.773 181.552 284.773L179.023 4.16519Z"/>
    <path d="M221.923 3.95801L286.157 4.00555L286.389 26.4974L253.767 26.677L253.17 107.838L281.71 107.926L281.919 130.374L252.618 130.793L252.065 214.465L289.233 214.39L289.535 238.092L221.68 238.26L221.923 3.95801Z"/>
    <path d="M298.64 3.42267L325.234 3.17862L353.765 139.588L354.502 3.12598L385.059 3.18989L385.793 283.733L360.027 283.655L329.25 145.234L328.078 247.771L296.978 247.677L298.64 3.42267Z"/>
    <path d="M399.698 2.72543L495.993 2.50928L495.523 60.9274L470.048 61.2281L468.325 596.851L421.972 597.076L427.282 62.2309L399.347 62.688L399.698 2.72543Z"/>
    <path d="M62.7441 252.981L70.9393 278.667L92.9375 279.65C92.9375 279.65 108.88 283.27 108.397 298.193C107.913 313.116 109.248 594.496 109.248 594.496L140.714 595.025L139.597 459.357L159.701 459.523L159.837 593.502L188.984 593.703L190.302 296.866L159.642 297.253L159.384 429.285L139.905 429.683C139.905 429.683 139.919 300.895 139.457 290.067C138.995 279.239 125.948 252.701 102.394 252.933C94.0684 253.015 62.7441 252.981 62.7441 252.981Z"/>
  </g>
</svg>
